# File created by Blade
# Date/Time:  Wed Jan 28 15:39:58 2015
#---------------------------------------------------------
:version 1.10
:name HOM
:units
  mass 1.0
  length 1.000000
  angle deg
:documentation
     Acclaim Skeleton File
:root
   axis xyz
   order TX TY TZ RX RY RZ
   position 0.000000 0.000000 0.000000
   orientation 0 0 0
:bonedata
   begin
      id 1
      name Spine_dum
      direction 0.000000 1.000000 0.000000
      length 6.864287
      axis 0.0 0.0 0.0 xyz
   end
   begin
      id 2
      name LeftUpLeg_dum
      direction 1.000000 0.000000 0.000000
      length 4.117376
      axis 0.0 0.0 0.0 xyz
   end
   begin
      id 3
      name RightUpLeg_dum
      direction -1.000000 0.000000 0.000000
      length 4.117376
      axis 0.0 0.0 0.0 xyz
   end
   begin
      id 4
      name Spine
      direction 0.000000 1.000000 0.000000
      length 0.000000
      axis 0.0 0.0 0.0 xyz
      dof rx ry rz
   end
   begin
      id 5
      name Spine_dum1
      direction 0.000000 1.000000 0.000000
      length 15.393827
      axis 0.0 0.0 0.0 xyz
   end
   begin
      id 6
      name Spine_dum2
      direction 0.000000 1.000000 0.000000
      length 9.314826
      axis 0.0 0.0 0.0 xyz
   end
   begin
      id 7
      name Spine_dum3
      direction 0.000000 1.000000 0.000000
      length 9.314826
      axis 0.0 0.0 0.0 xyz
   end
   begin
      id 8
      name Head
      direction 0.000000 1.000000 0.000000
      length 4.527550
      axis 0.0 0.0 0.0 xyz
      dof rx ry rz
   end
   begin
      id 9
      name LeftShoulder
      direction 1.000000 0.000000 0.000000
      length 8.275398
      axis 0.0 0.0 -90.0 xyz
      dof rx ry rz
   end
   begin
      id 10
      name LeftArm
      direction 1.000000 0.000000 0.000000
      length 12.002200
      axis 0.0 0.0 -90.0 xyz
      dof rx ry rz
   end
   begin
      id 11
      name LeftForeArm
      direction 1.000000 0.000000 0.000000
      length 10.144633
      axis 0.0 0.0 -90.0 xyz
      dof ry rz rx
   end
   begin
      id 12
      name LeftHand
      direction 0.000000 0.000000 0.000000
      length 0.000000
      axis 0.0 0.0 -90.0 xyz
      dof rx ry rz
   end
   begin
      id 13
      name LeftHand_dum1
      direction 0.000000 0.000000 0.000000
      length 0.000000
      axis 0.0 0.0 -90.0 xyz
   end
   begin
      id 14
      name LeftHand_dum2
      direction 1.000000 0.000000 0.000000
      length 3.937000
      axis 0.0 0.0 -90.0 xyz
   end
   begin
      id 15
      name LeftHandThumb1
      direction 0.000000 0.000000 1.000000
      length 3.937000
      axis 0.0 0.0 -90.0 xyz
      dof rx rz ry
   end
   begin
      id 16
      name RightShoulder
      direction -1.000000 0.000000 0.000000
      length 8.275398
      axis 0.0 0.0 90.0 xyz
      dof rx ry rz
   end
   begin
      id 17
      name RightArm
      direction -1.000000 0.000000 0.000000
      length 12.002200
      axis 0.0 0.0 90.0 xyz
      dof rx ry rz
   end
   begin
      id 18
      name RightForeArm
      direction -1.000000 0.000000 0.000000
      length 10.144633
      axis 0.0 0.0 90.0 xyz
      dof ry rz rx
   end
   begin
      id 19
      name RightHand
      direction 0.000000 0.000000 0.000000
      length 0.000000
      axis 0.0 0.0 90.0 xyz
      dof rx ry rz
   end
   begin
      id 20
      name RightHand_dum1
      direction 0.000000 0.000000 0.000000
      length 0.000000
      axis 0.0 0.0 90.0 xyz
   end
   begin
      id 21
      name RightHand_dum2
      direction -1.000000 0.000000 0.000000
      length 3.937000
      axis 0.0 0.0 90.0 xyz
   end
   begin
      id 22
      name RightHandThumb1
      direction 0.000000 0.000000 1.000000
      length 3.937000
      axis 0.0 0.0 90.0 xyz
      dof rx rz ry
   end
   begin
      id 23
      name LeftUpLeg
      direction 0.000000 -1.000000 0.000000
      length 19.394322
      axis 0.0 0.0 0.0 xyz
      dof rx ry rz
   end
   begin
      id 24
      name LeftLeg
      direction 0.000000 -1.000000 0.000000
      length 17.609563
      axis 0.0 0.0 0.0 xyz
      dof rx ry rz
   end
   begin
      id 25
      name LeftFoot
      direction 0.000000 -0.258819 0.965926
      length 6.085393
      axis 15.0 0.0 0.0 xyz
      dof rx ry rz
   end
   begin
      id 26
      name LeftToeBase
      direction 0.000000 0.000000 1.000000
      length 2.952750
      axis 0.0 0.0 0.0 xyz
      dof rx ry rz
   end
   begin
      id 27
      name RightUpLeg
      direction 0.000000 -1.000000 0.000000
      length 19.394322
      axis 0.0 0.0 0.0 xyz
      dof rx ry rz
   end
   begin
      id 28
      name RightLeg
      direction 0.000000 -1.000000 0.000000
      length 17.609563
      axis 0.0 0.0 0.0 xyz
      dof rx ry rz
   end
   begin
      id 29
      name RightFoot
      direction 0.000000 -0.258819 0.965926
      length 6.085393
      axis 15.0 0.0 0.0 xyz
      dof rx ry rz
   end
   begin
      id 30
      name RightToeBase
      direction 0.000000 0.000000 1.000000
      length 2.952750
      axis 0.0 0.0 0.0 xyz
      dof rx ry rz
   end
:hierarchy
   begin
      root Spine_dum LeftUpLeg_dum RightUpLeg_dum
      Spine_dum Spine
      LeftUpLeg_dum LeftUpLeg
      RightUpLeg_dum RightUpLeg
      Spine Spine_dum1 Spine_dum2 Spine_dum3
      Spine_dum1 Head
      Spine_dum2 LeftShoulder
      Spine_dum3 RightShoulder
      LeftShoulder LeftArm
      LeftArm LeftForeArm
      LeftForeArm LeftHand
      LeftHand LeftHand_dum1 LeftHand_dum2
      LeftHand_dum1 LeftHandThumb1
      RightShoulder RightArm
      RightArm RightForeArm
      RightForeArm RightHand
      RightHand RightHand_dum1 RightHand_dum2
      RightHand_dum1 RightHandThumb1
      LeftUpLeg LeftLeg
      LeftLeg LeftFoot
      LeftFoot LeftToeBase
      RightUpLeg RightLeg
      RightLeg RightFoot
      RightFoot RightToeBase
   end

# File created by Blade
# Date/Time:  Wed Jan 28 15:40:07 2015
# Frame Rate: 120.000 fps
#------------------------------------------------------
:FULLY-SPECIFIED
:DEGREES
462
root -7.623101 40.353852 -11.945682 -6.837667 -52.918042 46.588900
Spine 6.494530 8.428759 -11.491069
Head -7.959297 11.712304 -10.680816
LeftShoulder -16.416377 19.406908 -0.203582
LeftArm 11.062867 18.690693 -67.983492
LeftForeArm -16.461216 -0.000000 9.351329
LeftHand 2.410552 0.000000 -23.948918
LeftHandThumb1 -26.253704 0.000000 33.147579
RightShoulder -2.467451 10.019331 -26.761970
RightArm 9.336650 34.364206 62.605444
RightForeArm -5.833359 -0.000000 81.564942
RightHand -9.882693 0.000000 -46.870332
RightHandThumb1 -24.326973 -0.000000 -32.862282
LeftUpLeg -17.566079 -10.311918 17.776811
LeftLeg 143.536184 -0.000000 -0.000000
LeftFoot 24.346468 -7.406855 -20.070481
LeftToeBase 4.998107 -0.000000 -0.000000
RightUpLeg -37.290771 -5.443705 -17.495140
RightLeg 20.639537 -0.000000 -0.000000
RightFoot -23.438131 -15.573830 13.660729
RightToeBase 11.396912 -0.000000 -0.000000
463
root -7.611177 40.352442 -11.934536 -6.703991 -52.887909 46.513727
Spine 6.523456 8.448901 -11.234956
Head -8.122067 11.760149 -10.883047
LeftShoulder -16.474835 19.410057 -0.263316
LeftArm 11.047993 18.562868 -68.155088
LeftForeArm -16.300385 -0.000000 9.421647
LeftHand 2.410098 -0.000000 -23.714657
LeftHandThumb1 -26.253704 0.000000 33.147579
RightShoulder -2.545235 9.929955 -26.849132
RightArm 9.478559 34.571418 62.549860
RightForeArm -5.886882 -0.000000 81.743675
RightHand -10.031262 -0.000000 -46.537767
RightHandThumb1 -24.326973 -0.000000 -32.862282
LeftUpLeg -17.529682 -10.373460 17.789578
LeftLeg 143.595051 -0.000000 -0.000000
LeftFoot 24.248453 -7.324167 -20.176827
LeftToeBase 5.056532 -0.000000 -0.000000
RightUpLeg -37.366077 -5.486436 -17.473957
RightLeg 20.669495 -0.000000 -0.000000
RightFoot -23.404843 -15.678818 13.541806
RightToeBase 11.374537 -0.000000 -0.000000
464
root -7.599778 40.351456 -11.923408 -6.562933 -52.864606 46.425254
Spine 6.549399 8.476874 -10.945145
Head -8.256843 11.847457 -11.120521
LeftShoulder -16.512148 19.318789 -0.313320
LeftArm 10.912752 18.443490 -68.362252
LeftForeArm -16.142227 0.000000 9.519373
LeftHand 2.475313 -0.000000 -23.442115
LeftHandThumb1 -26.253704 0.000000 33.147579
RightShoulder -2.570449 9.978566 -26.986642
RightArm 9.375440 34.774979 62.386147
RightForeArm -5.770275 0.000000 81.974870
RightHand -9.991714 0.000000 -46.173808
RightHandThumb1 -24.326973 -0.000000 -32.862282
LeftUpLeg -17.481567 -10.434673 17.814690
LeftLeg 143.635329 -0.000000 -0.000000
LeftFoot 24.171104 -7.373684 -20.270979
LeftToeBase 5.113689 -0.000000 -0.000000
RightUpLeg -37.435130 -5.510491 -17.444819
RightLeg 20.690280 -0.000000 -0.000000
RightFoot -23.340927 -15.789237 13.424418
RightToeBase 11.164592 -0.000000 -0.000000
465
root -7.586643 40.351752 -11.911614 -6.444230 -52.830695 46.403684
Spine 6.546623 8.502997 -10.731643
Head -8.400986 11.927292 -11.297443
LeftShoulder -16.595213 19.263015 -0.334869
LeftArm 10.846898 18.323795 -68.554923
LeftForeArm -16.014477 -0.000000 9.599067
LeftHand 2.463381 -0.000000 -23.158642
LeftHandThumb1 -26.253704 0.000000 33.147579
RightShoulder -2.651940 9.885848 -27.101685
RightArm 9.468318 34.918041 62.266422
RightForeArm -5.679630 -0.000000 82.158199
RightHand -10.115846 -0.000000 -46.042647
RightHandThumb1 -24.326973 -0.000000 -32.862282
LeftUpLeg -17.452026 -10.516288 17.790836
LeftLeg 143.703323 -0.000000 -0.000000
LeftFoot 23.975269 -7.376151 -20.418613
LeftToeBase 4.972172 -0.000000 -0.000000
RightUpLeg -37.532490 -5.531004 -17.462482
RightLeg 20.711820 -0.000000 -0.000000
RightFoot -23.211388 -15.920137 13.166091
RightToeBase 10.803845 -0.000000 -0.000000
466
root -7.575686 40.349420 -11.901470 -6.293648 -52.821631 46.319251
Spine 6.564044 8.549620 -10.483625
Head -8.538609 12.018344 -11.457566
LeftShoulder -16.681105 19.163694 -0.350987
LeftArm 10.712277 18.086492 -68.784327
LeftForeArm -15.626775 -0.000000 9.726580
LeftHand 2.543946 -0.000000 -22.901044
LeftHandThumb1 -26.253704 0.000000 33.147579
RightShoulder -2.724076 9.953232 -27.232974
RightArm 9.350851 35.002468 62.025971
RightForeArm -5.541343 -0.000000 82.320754
RightHand -10.103346 -0.000000 -45.843774
RightHandThumb1 -24.326973 -0.000000 -32.862282
LeftUpLeg -17.326916 -10.679628 17.800894
LeftLeg 143.763893 -0.000000 -0.000000
LeftFoot 23.699453 -7.417556 -20.940296
LeftToeBase 4.938394 -0.000000 -0.000000
RightUpLeg -37.610314 -5.494870 -17.447144
RightLeg 20.706844 -0.000000 -0.000000
RightFoot -23.174202 -16.119076 13.045319
RightToeBase 10.689452 -0.000000 -0.000000
467
root -7.563894 40.348911 -11.892279 -6.112505 -52.797600 46.217215
Spine 6.557609 8.598711 -10.210198
Head -8.632604 12.069898 -11.637430
LeftShoulder -16.779353 19.192884 -0.421575
LeftArm 10.727444 17.883600 -68.934527
LeftForeArm -15.321502 -0.000000 9.858669
LeftHand 2.572091 0.000000 -22.703248
LeftHandThumb1 -26.253704 0.000000 33.147579
RightShoulder -2.812935 9.869658 -27.360720
RightArm 9.410478 35.143663 61.855892
RightForeArm -5.376202 -0.000000 82.465366
RightHand -10.105280 -0.000000 -45.617897
RightHandThumb1 -24.326973 -0.000000 -32.862282
LeftUpLeg -17.305734 -10.750573 17.831039
LeftLeg 143.799893 -0.000000 -0.000000
LeftFoot 23.609883 -7.351609 -21.091359
LeftToeBase 4.817879 -0.000000 -0.000000
RightUpLeg -37.688436 -5.439823 -17.452077
RightLeg 20.696249 -0.000000 -0.000000
RightFoot -23.145832 -16.327509 13.048542
RightToeBase 10.479869 -0.000000 -0.000000
468
root -7.555733 40.348594 -11.881423 -6.042421 -52.753271 46.192909
Spine 6.607246 8.587106 -10.046416
Head -8.743289 12.185180 -11.682481
LeftShoulder -16.978473 19.244770 -0.504699
LeftArm 10.831042 18.110700 -68.909962
LeftForeArm -15.420427 0.000000 10.038316
LeftHand 2.574152 0.000000 -22.469519
LeftHandThumb1 -26.253704 0.000000 33.147579
RightShoulder -2.860114 9.849129 -27.391833
RightArm 9.486172 35.224743 61.589099
RightForeArm -5.221850 -0.000000 82.553702
RightHand -10.231748 -0.000000 -45.564743
RightHandThumb1 -24.326973 -0.000000 -32.862282
LeftUpLeg -17.222516 -10.928254 17.824882
LeftLeg 143.865942 -0.000000 -0.000000
LeftFoot 23.441418 -7.297110 -21.497594
LeftToeBase 4.804594 -0.000000 -0.000000
RightUpLeg -37.713396 -5.386258 -17.509104
RightLeg 20.705331 -0.000000 -0.000000
RightFoot -23.087277 -16.461277 12.912896
RightToeBase 10.198781 -0.000000 -0.000000
469
root -7.542640 40.350339 -11.872103 -5.913992 -52.700276 46.164282
Spine 6.603974 8.680017 -9.839622
Head -8.801082 12.136138 -11.768267
LeftShoulder -17.006470 19.306009 -0.565444
LeftArm 10.869620 17.969244 -68.982779
LeftForeArm -15.046497 -0.000000 10.268340
LeftHand 2.497132 -0.000000 -22.241479
LeftHandThumb1 -26.253704 0.000000 33.147579
RightShoulder -3.023369 9.836109 -27.497604
RightArm 9.466291 35.260078 61.237151
RightForeArm -4.944388 -0.000000 82.592204
RightHand -10.204253 -0.000000 -45.352739
RightHandThumb1 -24.326973 -0.000000 -32.862282
LeftUpLeg -17.222623 -11.042247 17.804034
LeftLeg 143.933087 -0.000000 -0.000000
LeftFoot 23.325969 -7.229225 -21.698803
LeftToeBase 4.947332 -0.000000 -0.000000
RightUpLeg -37.794399 -5.364503 -17.565215
RightLeg 20.704498 -0.000000 -0.000000
RightFoot -23.069773 -16.597081 12.884838
RightToeBase 10.104260 -0.000000 -0.000000
470
root -7.528174 40.352469 -11.865659 -5.754943 -52.638240 46.092437
Spine 6.615726 8.711615 -9.624575
Head -8.870529 12.180420 -11.827912
LeftShoulder -17.057085 19.311286 -0.583089
LeftArm 10.857227 17.723564 -69.145158
LeftForeArm -14.651842 -0.000000 10.422278
LeftHand 2.482331 -0.000000 -22.193834
LeftHandThumb1 -26.253704 0.000000 33.147579
RightShoulder -3.218738 9.730886 -27.556163
RightArm 9.798448 35.322258 61.021421
RightForeArm -4.713434 -0.000000 82.419786
RightHand -10.073565 -0.000000 -45.361549
RightHandThumb1 -24.326973 -0.000000 -32.862282
LeftUpLeg -17.216347 -11.207279 17.821967
LeftLeg 144.029087 -0.000000 -0.000000
LeftFoot 23.237318 -7.327368 -21.877070
LeftToeBase 4.805918 -0.000000 -0.000000
RightUpLeg -37.866377 -5.322927 -17.612201
RightLeg 20.699289 -0.000000 -0.000000
RightFoot -23.068555 -16.775425 12.884993
RightToeBase 10.142370 -0.000000 -0.000000
471
root -7.511354 40.358970 -11.860947 -5.724461 -52.568504 46.106401
Spine 6.714766 8.673880 -9.512470
Head -8.980751 12.230544 -11.767194
LeftShoulder -17.167615 19.324824 -0.567227
LeftArm 10.910860 17.555663 -69.313296
LeftForeArm -14.366265 0.000000 10.516117
LeftHand 2.486494 -0.000000 -22.082103
LeftHandThumb1 -26.253704 0.000000 33.147579
RightShoulder -3.285324 9.739645 -27.493191
RightArm 9.922130 35.395583 60.544314
RightForeArm -4.330146 -0.000000 82.339947
RightHand -10.053685 -0.000000 -44.976201
RightHandThumb1 -24.326973 -0.000000 -32.862282
LeftUpLeg -17.187764 -11.319733 17.755566
LeftLeg 144.090131 -0.000000 -0.000000
LeftFoot 23.236775 -7.235074 -21.879778
LeftToeBase 4.950271 -0.000000 -0.000000
RightUpLeg -37.889827 -5.290139 -17.706194
RightLeg 20.689158 -0.000000 -0.000000
RightFoot -23.074687 -16.946315 13.007714
RightToeBase 10.085801 -0.000000 -0.000000
